# xmcd
#
# Track frame offsets:
#	150
#	14536
#	29392
#	46211
#	60342
#	69340
#	87615
#	104246
#	110690
#	124310
#	136732
#	144730
#	156213
#	171081
#
# Disc length: 2344 seconds
# Revision: 0
# Processed by: cddbd v1.5.2PL0 Copyright (c) Steve Scherf et al.
# Submitted via: dBpowerAMP V12.0
#
DISCID=c909260e
DTITLE=Steve Martin and the Steep Canyon Rangers - The Long-Awaited Album
DYEAR=2017
DGENRE=Bluegrass
TTITLE0=Santa Fe
TTITLE1=Caroline
TTITLE2=All Night Long
TTITLE3=Canadian Girl
TTITLE4=Office Supplies
TTITLE5=Bad Night
TTITLE6=Strangest Christmas Yet
TTITLE7=Always Will
TTITLE8=So Familiar
TTITLE9=Nights in the Lab
TTITLE10=Angeline the Barista
TTITLE11=On the Water
TTITLE12=Girl From River Run
TTITLE13=Promontory Point
EXTD=
EXTT0=
EXTT1=
EXTT2=
EXTT3=
EXTT4=
EXTT5=
EXTT6=
EXTT7=
EXTT8=
EXTT9=
EXTT10=
EXTT11=
EXTT12=
EXTT13=
PLAYORDER=
